<?xml version="1.0" standalone="no"?>
<!DOCTYPE svg PUBLIC "-//W3C//DTD SVG 20010904//EN"
 "http://www.w3.org/TR/2001/REC-SVG-20010904/DTD/svg10.dtd">
<svg version="1.0" xmlns="http://www.w3.org/2000/svg"
 width="150.000000pt" height="150.000000pt" viewBox="0 0 150.000000 150.000000"
 preserveAspectRatio="xMidYMid meet">

<g transform="translate(0.000000,150.000000) scale(0.100000,-0.100000)"
fill="#000000" stroke="none">
<path d="M398 1310 c-22 -17 -27 -18 -44 -5 -32 24 -71 18 -106 -16 l-33 -31
33 26 c42 32 77 33 104 2 l21 -23 22 25 c17 20 27 24 48 18 33 -8 61 -58 53
-95 -5 -22 -5 -23 5 -8 15 26 3 64 -31 98 -34 34 -40 35 -72 9z"/>
<path d="M150 1155 c-7 -9 -13 -30 -12 -48 1 -57 84 -108 129 -79 6 4 -9 7
-34 7 -35 0 -49 5 -64 24 -23 28 -25 74 -3 95 8 9 11 16 6 16 -5 0 -15 -7 -22
-15z"/>
<path d="M334 1128 l-29 -33 35 30 c19 17 37 31 39 33 2 1 0 2 -5 2 -6 0 -23
-15 -40 -32z"/>
<path d="M471 1129 c-1 -16 9 -34 26 -50 22 -19 24 -20 10 -3 -10 12 -22 35
-27 50 l-8 29 -1 -26z"/>
<path d="M443 1030 c-46 -27 -41 -34 5 -8 46 27 48 28 36 28 -5 0 -24 -9 -41
-20z"/>
<path d="M316 1010 c6 -8 16 -24 22 -35 6 -11 12 -15 12 -8 0 7 -10 22 -22 35
-13 13 -18 17 -12 8z"/>
<path d="M485 998 c-16 -17 -48 -39 -70 -49 -22 -10 -34 -19 -27 -19 26 0 91
40 112 70 27 39 23 38 -15 -2z"/>
<path d="M1067 593 c-9 -16 -67 -211 -67 -227 0 -32 38 -18 50 19 6 19 14 35
17 35 3 0 23 -16 45 -35 37 -34 58 -38 58 -11 0 7 -9 21 -20 31 -24 21 -26 41
-5 49 17 6 20 32 5 41 -6 3 -24 -3 -40 -15 -34 -24 -35 -21 -15 46 8 27 15 55
15 62 0 13 -36 17 -43 5z"/>
<path d="M557 583 c-16 -15 -6 -33 18 -33 14 0 25 -3 24 -7 0 -5 -22 -55 -48
-113 l-47 -105 -78 -11 c-66 -9 -83 -15 -103 -38 -28 -33 -29 -56 -2 -90 17
-21 29 -26 67 -26 59 0 103 26 137 80 23 37 29 40 70 40 25 0 60 6 79 14 67
28 98 104 57 145 -19 19 -19 19 5 40 31 27 32 74 2 95 -23 16 -167 23 -181 9z
m148 -43 c11 -18 -6 -50 -30 -56 -38 -9 -45 -2 -30 34 14 32 46 44 60 22z
m-17 -124 c21 -20 -2 -65 -43 -81 -39 -17 -75 -20 -75 -6 0 13 31 84 43 99 12
15 54 8 75 -12z m-218 -166 c-20 -38 -77 -53 -99 -26 -19 23 13 46 65 46 41 0
44 -1 34 -20z"/>
<path d="M1207 482 c-22 -24 -22 -85 -1 -103 19 -16 124 -24 143 -11 25 18 0
32 -55 32 -30 0 -54 5 -54 10 0 6 13 10 29 10 16 0 36 3 45 6 19 7 21 45 4 62
-19 19 -92 15 -111 -6z m73 -22 c0 -5 -9 -10 -21 -10 -11 0 -17 5 -14 10 3 6
13 10 21 10 8 0 14 -4 14 -10z"/>
<path d="M809 460 c-52 -52 -31 -115 37 -112 125 5 139 7 139 22 0 9 -11 16
-27 18 l-27 3 15 41 c8 23 12 44 8 47 -3 3 -30 7 -61 8 -49 2 -59 -1 -84 -27z
m80 -9 c20 -13 -7 -66 -34 -66 -26 0 -31 31 -9 56 19 21 23 22 43 10z"/>
</g>
</svg>
